<svg width="102" height="102" viewBox="0 0 102 102" fill="none" xmlns="http://www.w3.org/2000/svg">
<path d="M76.5 38.25C76.4617 38.25 76.4277 38.2585 76.3938 38.2627C75.877 31.1216 72.6062 24.4604 67.2715 19.685C61.9369 14.9095 54.9556 12.3934 47.801 12.6674C40.6464 12.9415 33.8781 15.9843 28.9243 21.1538C23.9706 26.3234 21.2189 33.2152 21.25 40.375C21.2584 42.5505 21.5237 44.7175 22.0405 46.8307C21.7727 46.818 21.522 46.75 21.25 46.75C16.7413 46.75 12.4173 48.541 9.22919 51.7292C6.04107 54.9173 4.25 59.2413 4.25 63.75C4.25 68.8585 6.54925 73.3847 10.115 76.5H89.1352C94.333 72.6282 97.75 66.4827 97.75 59.5C97.75 56.7094 97.2004 53.9461 96.1324 51.368C95.0645 48.7898 93.4993 46.4472 91.526 44.474C89.5528 42.5007 87.2102 40.9355 84.632 39.8675C82.0539 38.7996 79.2906 38.25 76.5 38.25ZM55.25 55.25V68H46.75V55.25H34L51 34L68 55.25H55.25Z" fill="#0085FF"/>
</svg>
