<svg width="102" height="102" viewBox="0 0 102 102" fill="none" xmlns="http://www.w3.org/2000/svg">
<path d="M45.9 0C33.7266 0 22.0517 4.83588 13.4438 13.4438C4.83588 22.0517 0 33.7266 0 45.9C0 58.0734 4.83588 69.7483 13.4438 78.3562C22.0517 86.9641 33.7266 91.8 45.9 91.8C58.0734 91.8 69.7483 86.9641 78.3562 78.3562C86.9641 69.7483 91.8 58.0734 91.8 45.9C91.8 33.7266 86.9641 22.0517 78.3562 13.4438C69.7483 4.83588 58.0734 0 45.9 0V0ZM63.546 60.945C63.546 68.442 59.466 77.775 42.84 84.915C44.37 63.648 29.988 66.096 26.52 59.415C26.8358 56.6511 27.8423 54.0111 29.4466 51.7383C31.0509 49.4656 33.2014 47.6332 35.7 46.41C27.7857 45.0525 20.4047 41.521 14.382 36.21C14.637 38.607 15.8049 40.8204 17.646 42.381C13.6574 40.8775 10.211 38.2128 7.752 34.731C10.1836 26.7056 15.0466 19.6331 21.6698 14.4899C28.2929 9.34665 36.3495 6.38645 44.727 6.018C40.443 13.056 37.077 27.081 44.727 34.425C36.873 35.7 31.926 25.5 27.591 29.529C21.828 34.935 29.274 42.33 45.033 45.237C61.812 48.246 63.699 53.295 63.546 60.945ZM70.38 40.545C68.748 34.884 73.542 29.172 78.999 24.531C82.407 29.4434 84.5764 35.1071 85.3223 41.0392C86.0683 46.9713 85.3686 52.9958 83.283 58.599C79.356 48.96 72.216 46.767 70.38 40.392V40.545Z" fill="#0085FF"/>
</svg>
